<?xml version="1.0" standalone="no"?> <!DOCTYPE svg PUBLIC "-//W3C//DTD SVG 1.0//EN" "http://www.w3.org/TR/2001/REC-SVG-20010904/DTD/svg10.dtd" > <svg xmlns="http://www.w3.org/2000/svg" width="100%" height="100%">
<defs >
<font id="helveticacd" horiz-adv-x="371" ><font-face
    font-family="Helvetica57-Condensed"
    units-per-em="1000"
    panose-1="2 11 5 0 0 0 0 0 0 0"
    ascent="714"
    descent="176"
    alphabetic="0" />
<missing-glyph horiz-adv-x="502" d="M-1 0H499V500H-1V0ZM9 10V490H489V10H9Z" />
<glyph unicode=" " glyph-name="space" horiz-adv-x="240" />
<glyph unicode="!" glyph-name="exclam" horiz-adv-x="258" d="M99 186H159L175 714H83L99 186ZM83 0H175V96H83V0Z" />
<glyph unicode="&quot;" glyph-name="quotedbl" horiz-adv-x="407" d="M87 460H153V714H87V460ZM254 460H320V714H254V460Z" />
<glyph unicode="#" glyph-name="numbersign" horiz-adv-x="480" d="M79 0H145L171 205H277L251 0H317L343 205H434V271H351L370 425H457V491H379L404 694H338L313 491H207L232 694H166L141 491H45V425H132L113 271H23V205H105L79 0ZM198 425H304L285 271H179L198 425Z" />
<glyph unicode="$" glyph-name="dollar" horiz-adv-x="480" d="M259 306Q311 287 339 259T367 179Q367 128 337 95T259 58V306ZM217 405Q171 423 147 450T122 525Q122 624 217 636V405ZM217 708Q160 705 123 685T65 635T38 576T30 516Q30 468 45 435T86 380T141
347T215 321L217 320V58Q180 62 158 76T125 113T112 159T109 218H21Q21 105 65 48T217 -14V-108H259V-14Q298 -12 333 0T396 37T442 100T459 193Q459 240 444 273T405 326T353 357T281 384Q266 389 259 391V636Q308 631 329 599T351 514H439Q438 607 394 655T259
708V766H217V708Z" />
<glyph unicode="%" glyph-name="percent" horiz-adv-x="759" d="M177 378Q139 378 129 410T118 516Q118 589 128 621T177 654Q215 654 225 622T236 516Q236 443 226 411T177 378ZM186 -14H256L566 708H496L186 -14ZM582 40Q544 40 534 72T523 178Q523 251 533
283T582 316Q620 316 630 284T641 178Q641 105 631 73T582 40ZM177 324Q220 324 246 339T286 380T303 439T308 516Q308 560 304 592T286 651T247 693T177 708Q134 708 108 693T68 652T51 593T46 516Q46 472 50 440T68 381T107 340T177 324ZM582 -14Q625 -14 651
1T691 42T708 101T713 178Q713 222 709 254T691 313T652 355T582 370Q539 370 513 355T473 314T456 255T451 178Q451 134 455 102T473 43T512 2T582 -14Z" />
<glyph unicode="&amp;" glyph-name="ampersand" horiz-adv-x="556" d="M238 453L221 477Q201 507 190 531T178 578Q178 609 197 628T249 648Q281 648 301 629T321 578Q321 548 307 527T262 476L257 471L238 453ZM372 127Q343 94 313 76T244 58Q189 58 151 93T113
191Q113 244 141 285T215 354L372 127ZM275 400L301 422Q348 461 373 496T399 578Q399 648 359 681T248 714Q186 714 143 675T100 574Q100 540 113 512T152 444L174 408L122 369Q77 334 51 286T25 184Q25 155 34 122T67 58T133 7T237 -14Q291 -14 329 5T413 67L461
0H556L464 129Q474 142 484 168T503 226T517 288T522 337H444Q440 291 434 259T416 198L275 400Z" />
<glyph unicode="&apos;" glyph-name="quotesingle" horiz-adv-x="240" d="M87 460H153V714H87V460Z" />
<glyph unicode="(" glyph-name="parenleft" horiz-adv-x="241" d="M189 714Q118 617 81 501T43 265Q43 146 81 29T189 -184H237Q181 -76 154 34T127 265Q127 390 153 504T237 714H189Z" />
<glyph unicode=")" glyph-name="parenright" horiz-adv-x="241" d="M52 -184Q123 -87 160 29T198 265Q198 384 160 501T52 714H4Q60 606 87 496T114 265Q114 140 88 26T4 -184H52Z" />
<glyph unicode="*" glyph-name="asterisk" horiz-adv-x="352" d="M146 595L39 636L17 578L130 544L54 450L104 413L176 515L248 413L298 450L222 544L335 578L313 636L206 595V714H146V595Z" />
<glyph unicode="+" glyph-name="plus" horiz-adv-x="600" d="M267 0H333V220H553V286H333V506H267V286H47V220H267V0Z" />
<glyph unicode="," glyph-name="comma" horiz-adv-x="240" d="M74 0H118V-24Q118 -55 109 -72T74 -101V-148Q105 -140 124 -124T152 -86T163 -40T166 19V106H74V0Z" />
<glyph unicode="-" glyph-name="hyphen" horiz-adv-x="352" d="M54 245H298V323H54V245Z" />
<glyph unicode="." glyph-name="period" horiz-adv-x="240" d="M74 0H166V106H74V0Z" />
<glyph unicode="/" glyph-name="slash" horiz-adv-x="278" d="M-10 -14H56L288 728H222L-10 -14Z" />
<glyph unicode="0" glyph-name="zero" horiz-adv-x="480" d="M240 -14Q308 -14 349 18T411 104T436 215T442 344Q442 425 437 484T411 595T350 677T240 708Q172 708 131 676T69 590T44 477T38 344Q38 266 43 208T69 98T130 17T240 -14ZM126 344Q126 415 129 464T143
554T177 618T240 642Q279 642 302 619T337 555T351 465T354 344Q354 276 351 228T337 140T303 76T240 52Q201 52 178 75T144 139T129 228T126 344Z" />
<glyph unicode="1" glyph-name="one" horiz-adv-x="480" d="M67 532H218V0H302V708H242Q241 672 227 650T189 616T137 599T67 592V532Z" />
<glyph unicode="2" glyph-name="two" horiz-adv-x="480" d="M438 78H134Q149 146 211 199L311 286Q376 342 405 392T435 519Q435 548 428 579T400 639T341 688T245 708Q141 708 93 649T44 483H132Q132 506 135 529T148 577T182 619T244 636Q297 636 322 599T347
509Q347 455 324 418T253 339L195 290Q126 230 84 161T42 0H438V78Z" />
<glyph unicode="3" glyph-name="three" horiz-adv-x="480" d="M180 333H225Q289 333 321 298T353 198Q353 155 344 126T318 81T282 59T240 52Q184 52 156 94T127 192H39V183Q39 163 45 133T71 68T132 10T240 -14Q339 -14 390 45T441 205Q441 276 407 317T310 370V372Q364
385 392 426T420 524Q420 557 412 588T383 647T327 691T238 708Q143 708 97 654T50 504H138Q138 529 141 551T155 594T186 628T240 642Q288 642 310 610T332 524Q332 468 305 434T224 399H180V333Z" />
<glyph unicode="4" glyph-name="four" horiz-adv-x="480" d="M284 570H286V243H106L284 570ZM30 250V171H286V0H370V171H450V243H370V708H286L30 250Z" />
<glyph unicode="5" glyph-name="five" horiz-adv-x="480" d="M58 331L134 327Q134 334 141 345T162 369T194 388T234 396Q266 396 289 383T326 347T346 296T352 236Q352 204 348 173T331 115T295 70T236 52Q203 52 181 66T148 101T133 143T128 182H40Q40 155 48
123T76 60T136 7T234 -14Q288 -14 327 5T391 57T428 134T440 229Q440 339 392 400T262 462Q225 462 192 449T138 409L136 411L164 616H413V694H97L58 331Z" />
<glyph unicode="6" glyph-name="six" horiz-adv-x="480" d="M429 538Q429 557 423 584T399 639T344 688T250 708Q178 708 134 673T68 581T41 462T35 322Q35 253 41 198T68 95T132 16T245 -14Q341 -14 393 53T445 228Q445 331 398 391T260 452Q209 452 175 427T125
373H123V429Q123 453 127 485T143 554T181 616T248 642Q292 642 316 613T341 538H429ZM133 216Q133 248 138 276T155 327T189 365T245 380Q279 380 301 366T335 328T352 276T357 216Q357 186 352 158T334 105T299 67T245 52Q214 52 192 66T157 105T139 157T133
216Z" />
<glyph unicode="7" glyph-name="seven" horiz-adv-x="480" d="M38 616H362Q258 480 194 322Q128 165 108 0H206Q215 101 240 194T303 378Q333 451 370 513T442 621V694H38V616Z" />
<glyph unicode="8" glyph-name="eight" horiz-adv-x="480" d="M37 195Q37 157 47 121T80 54T143 5T240 -14Q297 -14 336 4T399 53T433 120T443 195Q443 336 318 377Q371 399 396 435T421 528Q421 613 373 660T240 708Q156 708 108 661T59 528Q59 471 84 435T162
377Q37 336 37 195ZM240 642Q286 642 309 611T333 526Q333 474 310 442T240 410Q193 410 170 442T147 526Q147 579 170 610T240 642ZM125 198Q125 264 153 304T240 344Q299 344 327 304T355 198Q355 132 327 92T240 52Q182 52 154 92T125 198Z" />
<glyph unicode="9" glyph-name="nine" horiz-adv-x="480" d="M51 156Q51 137 57 110T81 55T136 6T230 -14Q303 -14 347 21T412 113T439 232T445 372Q445 441 439 495T412 599T348 678T235 708Q139 708 87 641T35 466Q35 363 82 303T220 242Q271 242 305 267T355
321H357V265Q357 242 353 209T337 140T299 78T232 52Q188 52 164 81T139 156H51ZM347 478Q347 446 343 418T326 367T291 329T235 314Q202 314 180 328T145 366T128 418T123 478Q123 509 128 537T147 589T182 627T235 642Q266 642 288 628T323 590T341 538T347 478Z"
/>
<glyph unicode=":" glyph-name="colon" horiz-adv-x="240" d="M74 400H166V506H74V400ZM74 0H166V106H74V0Z" />
<glyph unicode=";" glyph-name="semicolon" horiz-adv-x="240" d="M74 0H118V-24Q118 -55 109 -72T74 -101V-148Q105 -140 124 -124T152 -86T163 -40T166 19V106H74V0ZM74 400H166V506H74V400Z" />
<glyph unicode="&lt;" glyph-name="less" horiz-adv-x="600" d="M47 223L553 -8V58L125 253L553 448V514L47 283V223Z" />
<glyph unicode="=" glyph-name="equal" horiz-adv-x="600" d="M47 322H553V388H47V322ZM47 118H553V184H47V118Z" />
<glyph unicode="&gt;" glyph-name="greater" horiz-adv-x="600" d="M47 -8L553 223V283L47 514V448L475 253L47 58V-8Z" />
<glyph unicode="?" glyph-name="question" horiz-adv-x="444" d="M119 504Q119 528 122 552T136 598T168 635T224 650Q271 650 296 618T321 539Q321 505 315 482T291 437Q283 427 261 402Q235 371 218 350T190 309Q178 285 175 257T171 186H249V205Q249 231 256
257T281 305Q286 311 295 321T321 351Q326 356 340 372T359 393Q383 422 396 459T409 534Q409 617 359 669T221 722Q129 722 82 661T35 504H119ZM165 0H257V96H165V0Z" />
<glyph unicode="@" glyph-name="at" horiz-adv-x="800" d="M240 293Q240 328 253 366T288 437T342 489T408 509Q444 509 466 478T489 409Q489 379 478 343T446 273T396 218T334 197Q294 197 267 224T240 293ZM524 487H522Q507 530 478 549T408 569Q357 569 314
546T239 481T191 390T174 287Q174 222 216 180T316 137Q356 137 385 152T441 196H443Q450 137 513 137Q558 137 603 157T687 214T748 304T771 419Q771 486 744 542T667 641T549 705T400 728Q324 728 257 700T138 620T58 501T29 357Q29 281 57 214T137 95T256 15T400
-14Q515 -14 600 30T734 157H671Q631 102 562 74T400 46Q336 46 281 69T183 135T118 234T95 357Q95 422 118 478T183 578T281 644T400 668Q464 668 519 650T617 598T682 517T705 415Q705 374 692 335T656 265T602 215T538 197Q509 197 509 223Q509 237 517 266L518
268L602 550H546L524 487Z" />
<glyph unicode="A" glyph-name="A" horiz-adv-x="500" d="M-8 0H84L137 196H365L416 0H508L316 714H198L-8 0ZM254 613H256L347 268H155L254 613Z" />
<glyph unicode="B" glyph-name="B" horiz-adv-x="519" d="M146 340H251Q314 340 352 307T391 204Q391 147 361 110T266 72H146V340ZM58 0H252Q367 0 425 49T483 204Q483 272 452 318T356 380V382Q404 396 432 438T460 531Q460 581 445 616T405 673T347 704T277
714H58V0ZM146 642H245Q308 642 338 612T368 525Q368 486 356 462T324 425T285 410T247 406H146V642Z" />
<glyph unicode="C" glyph-name="C" horiz-adv-x="519" d="M403 245Q402 207 397 175T379 117T341 74T278 58Q234 58 206 80T164 143T145 235T140 357Q140 427 145 479T164 571T206 633T278 656Q341 656 368 615T397 506H489Q486 615 436 671T278 728Q208 728 162
697T91 614T57 498T48 357Q48 279 56 216T88 100T159 17T278 -14Q334 -14 375 6T441 63T479 145T495 245H403Z" />
<glyph unicode="D" glyph-name="D" horiz-adv-x="556" d="M155 642H247Q304 642 339 618T390 554T411 467T416 356Q416 298 410 251T387 163T336 97T247 72H155V642ZM67 0H267Q338 0 385 29T459 108T497 220T508 357Q508 441 499 503T465 612T389 687T258 714H67V0Z" />
<glyph unicode="E" glyph-name="E" horiz-adv-x="463" d="M58 0H439V78H146V334H411V412H146V636H427V714H58V0Z" />
<glyph unicode="F" glyph-name="F" horiz-adv-x="444" d="M58 0H146V334H411V412H146V636H427V714H58V0Z" />
<glyph unicode="G" glyph-name="G" horiz-adv-x="537" d="M489 516Q488 542 483 573T457 641T393 702T278 728Q208 728 162 697T91 614T57 498T48 357Q48 277 57 213T89 97T156 16T267 -14Q323 -14 364 17T421 97H423V0H489V371H268V299H409Q409 253 405 214T388
140T348 81T278 58Q234 58 206 80T164 143T145 235T140 357Q140 427 145 479T164 571T206 633T278 656Q339 656 366 618T397 516H489Z" />
<glyph unicode="H" glyph-name="H" horiz-adv-x="537" d="M479 714H391V422H146V714H58V0H146V344H391V0H479V714Z" />
<glyph unicode="I" glyph-name="I" horiz-adv-x="204" d="M58 0H146V714H58V0Z" />
<glyph unicode="J" glyph-name="J" horiz-adv-x="426" d="M368 714H280V208Q280 127 262 93T188 58Q146 58 126 84T106 156V208H22V149Q22 79 63 33T189 -14Q242 -14 277 2T332 47T360 115T368 205V714Z" />
<glyph unicode="K" glyph-name="K" horiz-adv-x="500" d="M58 0H146V243L220 344L413 0H511L277 416L493 714H395L148 368H146V714H58V0Z" />
<glyph unicode="L" glyph-name="L" horiz-adv-x="444" d="M58 0H436V78H146V714H58V0Z" />
<glyph unicode="M" glyph-name="M" horiz-adv-x="704" d="M60 0H148V624H150L308 0H396L554 624H556V0H644V714H496L353 148H351L208 714H60V0Z" />
<glyph unicode="N" glyph-name="N" horiz-adv-x="556" d="M58 0H146V578H148L377 0H498V714H410V118H408L172 714H58V0Z" />
<glyph unicode="O" glyph-name="O" horiz-adv-x="556" d="M278 728Q208 728 162 697T91 614T57 498T48 357Q48 280 57 216T90 100T161 17T278 -14Q348 -14 394 17T465 100T499 216T508 357Q508 434 499 498T466 614T395 697T278 728ZM278 656Q322 656 350 634T392
571T411 479T416 357Q416 287 411 235T392 143T350 81T278 58Q234 58 206 80T164 143T145 235T140 357Q140 427 145 479T164 571T206 633T278 656Z" />
<glyph unicode="P" glyph-name="P" horiz-adv-x="481" d="M58 0H146V302H255Q348 302 404 356T461 509Q461 581 437 624T378 686T310 709T240 714H58V0ZM146 642H245Q308 642 338 608T369 513Q369 445 336 410T251 374H146V642Z" />
<glyph unicode="Q" glyph-name="Q" horiz-adv-x="556" d="M473 -43L522 9L450 75Q483 125 495 197T508 357Q508 434 499 498T466 614T395 697T278 728Q208 728 162 697T91 614T57 498T48 357Q48 280 57 216T90 100T161 17T278 -14Q353 -14 401 22L473 -43ZM343
75Q317 58 278 58Q234 58 206 80T164 143T145 235T140 357Q140 427 145 479T164 571T206 633T278 656Q322 656 350 634T392 571T411 479T416 357Q416 280 410 225T389 131L323 191L274 137L343 75Z" />
<glyph unicode="R" glyph-name="R" horiz-adv-x="519" d="M58 0H146V318H265Q286 318 302 315T333 302T358 271T371 214L377 103Q379 70 385 40T401 0H507Q490 11 481 33T469 112L463 234Q460 282 434 315T362 353V355Q420 369 446 419T472 535Q472 619 423 666T289
714H58V0ZM146 642H251Q312 642 346 612T380 528Q380 480 366 451T329 409T285 393T233 390H146V642Z" />
<glyph unicode="S" glyph-name="S" horiz-adv-x="500" d="M449 529Q448 628 399 678T249 728Q185 728 143 708T79 657T48 594T40 531Q40 481 55 447T96 392T151 358T225 330Q263 317 287 307T332 281T365 242T377 184Q377 128 342 93T253 58Q207 58 180 72T139
109T123 159T119 224H31Q31 104 79 45T247 -14Q288 -14 327 -4T398 31T449 97T469 198Q469 248 454 282T413 337T358 370T284 397Q246 409 222 419T177 444T144 482T132 540Q132 596 163 626T250 656Q310 656 335 623T361 529H449Z" />
<glyph unicode="T" glyph-name="T" horiz-adv-x="463" d="M275 636H455V714H8V636H187V0H275V636Z" />
<glyph unicode="U" glyph-name="U" horiz-adv-x="519" d="M50 212Q50 100 101 43T259 -14Q362 -14 415 46T469 212V714H381V212Q381 133 354 96T259 58Q195 58 167 95T138 212V714H50V212Z" />
<glyph unicode="V" glyph-name="V" horiz-adv-x="462" d="M172 0H284L464 714H372L232 101H230L90 714H-2L172 0Z" />
<glyph unicode="W" glyph-name="W" horiz-adv-x="722" d="M150 0H257L360 578H362L460 0H567L714 714H626L517 130H515L414 714H308L207 130H205L96 714H8L150 0Z" />
<glyph unicode="X" glyph-name="X" horiz-adv-x="481" d="M192 363L2 0H94L239 286L381 0H479L289 363L467 714H375L244 447L114 714H16L192 363Z" />
<glyph unicode="Y" glyph-name="Y" horiz-adv-x="462" d="M187 280V0H275V280L464 714H372L231 380L95 714H-2L187 280Z" />
<glyph unicode="Z" glyph-name="Z" horiz-adv-x="463" d="M23 0H440V78H115L436 633V714H41V636H344L23 74V0Z" />
<glyph unicode="[" glyph-name="bracketleft" horiz-adv-x="259" d="M78 -184H257V-118H156V648H257V714H78V-184Z" />
<glyph unicode="\" glyph-name="backslash" horiz-adv-x="278" d="M222 -14H288L56 728H-10L222 -14Z" />
<glyph unicode="]" glyph-name="bracketright" horiz-adv-x="259" d="M181 714H2V648H103V-118H2V-184H181V714Z" />
<glyph unicode="^" glyph-name="asciicircum" horiz-adv-x="600" d="M47 261H113L300 622L487 261H553L324 694H276L47 261Z" />
<glyph unicode="_" glyph-name="underscore" horiz-adv-x="500" d="M0 -125H500V-75H0V-125Z" />
<glyph unicode="`" glyph-name="grave" horiz-adv-x="204" d="M-16 752L92 610H152L82 752H-16Z" />
<glyph unicode="a" glyph-name="a" horiz-adv-x="444" d="M126 374V379Q126 393 128 408T138 441T166 471T218 484Q304 484 304 405Q304 367 295 352T243 324L130 290Q79 275 54 237T29 142Q29 68 65 27T175 -14Q213 -14 248 7T304 63H306Q307 39 314 25T332 4T354
-4T382 -6Q394 -6 407 -5T430 -1H431V59Q424 54 411 54Q394 54 390 64T385 97V396Q385 427 382 450T363 496T314 535T222 550Q127 550 85 508T42 374H126ZM301 154Q301 113 268 83T193 52Q153 52 135 76T117 144Q117 178 127 197T158 229Q174 238 217 252Q250 262
269 270T301 292V154Z" />
<glyph unicode="b" glyph-name="b" horiz-adv-x="463" d="M134 268Q134 311 138 348T155 414T188 460T242 478Q297 478 318 425T340 268Q340 167 319 113T242 58Q210 58 189 74T155 120T139 185T134 268ZM55 0H135V66H137Q146 34 178 10T253 -14Q298 -14 331 8T386
69T418 159T428 268Q428 318 422 365T399 454T349 523T265 550Q224 550 190 530T141 475H139V714H55V0Z" />
<glyph unicode="c" glyph-name="c" horiz-adv-x="426" d="M394 373Q394 401 387 430T362 487T309 532T223 550Q164 550 126 525T67 459T40 368T32 261Q32 121 76 54T218 -14Q266 -14 300 4T354 52T384 116T394 186H310Q310 162 306 139T293 96T266 64T222 52Q187
52 166 73T135 127T123 191T120 262Q120 332 128 377T152 445T185 476T225 484Q269 484 289 452T310 373H394Z" />
<glyph unicode="d" glyph-name="d" horiz-adv-x="463" d="M123 268Q123 372 144 425T221 478Q253 478 274 461T308 414T324 348T329 268Q329 218 325 181T310 116T277 73T221 58Q166 58 145 111T123 268ZM408 714H324V475H322Q308 509 275 529T204 550Q151 550
117 524T65 455T41 366T35 268Q35 134 77 60T210 -14Q252 -14 284 10T326 66H328V0H408V714Z" />
<glyph unicode="e" glyph-name="e" horiz-adv-x="444" d="M128 324V344Q128 361 131 383T145 429T175 468T226 484Q252 484 270 473T299 443T314 401T319 353V324H128ZM407 258V292Q407 345 402 387T378 467T323 527T228 550Q169 550 131 525T72 459T45 368T37
261Q37 121 81 54T223 -14Q275 -14 310 6T366 56T394 119T403 176H319Q319 157 316 137T303 97T275 65T228 52Q192 52 171 71T139 121T127 183T125 258H407Z" />
<glyph unicode="f" glyph-name="f" horiz-adv-x="259" d="M80 0H164V470H256V536H164V599Q164 650 218 650H257V722H196Q136 722 108 692T80 599V536H2V470H80V0Z" />
<glyph unicode="g" glyph-name="g" horiz-adv-x="463" d="M221 478Q253 478 274 461T308 414T324 348T329 268Q329 223 325 189T308 128T275 87T220 72Q190 72 171 89T141 135T127 197T123 268Q123 372 144 425T221 478ZM408 536H328V468H326Q317 501 285 525T210
550Q161 550 127 528T73 466T44 376T35 268Q35 230 40 188T61 103T112 30T201 0Q242 0 275 19T322 72H324V2Q324 -22 322 -41T309 -78T278 -107T220 -118Q184 -118 161 -102T134 -50H50Q55 -97 77 -125T127 -165T179 -181T226 -184Q312 -184 360 -133T408 34V536Z"
/>
<glyph unicode="h" glyph-name="h" horiz-adv-x="463" d="M55 0H139V370Q139 424 172 451T245 478Q272 478 288 468T312 441T322 408T324 370V0H408V380Q408 414 405 440T390 491T348 533T270 550Q233 550 195 529T141 475H139V714H55V0Z" />
<glyph unicode="i" glyph-name="i" horiz-adv-x="204" d="M60 0H144V536H60V0ZM60 618H144V714H60V618Z" />
<glyph unicode="j" glyph-name="j" horiz-adv-x="204" d="M144 536H60V-22Q60 -70 52 -91T8 -112Q1 -112 -13 -110L-23 -109V-181L-10 -182Q7 -184 16 -184Q83 -184 113 -152T144 -52V536ZM144 714H60V618H144V714Z" />
<glyph unicode="k" glyph-name="k" horiz-adv-x="444" d="M264 334L427 536H329L141 289H139V714H55V0H139V181L208 265L357 0H455L264 334Z" />
<glyph unicode="l" glyph-name="l" horiz-adv-x="204" d="M60 0H144V714H60V0Z" />
<glyph unicode="m" glyph-name="m" horiz-adv-x="722" d="M63 0H147V370Q147 400 156 421T181 454T213 472T247 478Q271 478 286 468T308 441T317 408T319 370V0H403V370Q403 400 412 421T437 454T469 472T503 478Q527 478 542 468T564 441T573 408T575 370V0H659V380Q659
414 656 440T640 491T598 533T518 550Q478 550 444 526T391 465Q378 510 350 530T275 550Q234 550 198 530T145 473H143V536H63V0Z" />
<glyph unicode="n" glyph-name="n" horiz-adv-x="463" d="M55 0H139V370Q139 424 172 451T245 478Q272 478 288 468T312 441T322 408T324 370V0H408V380Q408 414 405 440T389 491T347 533T267 550Q226 550 190 530T137 473H135V536H55V0Z" />
<glyph unicode="o" glyph-name="o" horiz-adv-x="444" d="M29 268Q29 207 38 157T68 69T128 8T222 -14Q278 -14 315 8T375 68T406 157T415 268Q415 329 406 379T376 467T316 528T222 550Q166 550 129 528T69 468T38 379T29 268ZM220 52Q189 52 169 69T137 115T122
182T117 268Q117 316 121 354T137 421T168 467T220 484Q253 484 274 468T306 422T322 354T327 268Q327 220 323 182T307 115T274 69T220 52Z" />
<glyph unicode="p" glyph-name="p" horiz-adv-x="463" d="M134 268Q134 318 138 355T153 420T186 463T242 478Q297 478 318 427T340 278Q340 167 319 113T242 58Q210 58 189 75T155 122T139 188T134 268ZM55 -176H139V61H141Q155 27 186 7T253 -14Q303 -14 337
13T391 83T419 177T428 278Q428 405 386 477T253 550Q211 550 179 526T137 470H135V536H55V-176Z" />
<glyph unicode="q" glyph-name="q" horiz-adv-x="463" d="M329 268Q329 225 325 189T308 123T275 76T221 58Q166 58 145 112T123 278Q123 375 144 426T221 478Q255 478 276 463T309 421T325 356T329 268ZM324 -176H408V536H328V470H326Q317 502 285 526T210 550Q119
550 77 478T35 278Q35 218 43 167T71 75T125 10T210 -14Q246 -14 277 6T322 61H324V-176Z" />
<glyph unicode="r" glyph-name="r" horiz-adv-x="296" d="M55 0H139V339Q139 370 149 394T177 435T213 458T249 466Q270 466 288 463Q292 462 294 462V544Q282 550 257 550Q216 550 189 525T141 456H139V536H55V0Z" />
<glyph unicode="s" glyph-name="s" horiz-adv-x="407" d="M369 379Q369 411 365 438T344 491T295 533T206 550Q132 550 84 512T35 402Q35 363 45 338T73 296T110 272T161 252L167 250Q171 249 184 245Q242 226 263 210Q280 198 289 182T298 141Q298 114 289 97T265
69T237 56T209 52Q153 52 131 85T109 176H25Q25 145 29 116T51 57T107 7T209 -14Q287 -14 334 29T382 154Q382 192 372 218T343 259T304 284T251 305Q243 308 227 313Q171 330 145 347T119 402Q119 428 128 445T151 470T179 481T206 484Q250 484 267 459T285 379H369Z"
/>
<glyph unicode="t" glyph-name="t" horiz-adv-x="259" d="M80 536H2V470H80V100Q80 45 103 20T188 -6Q223 -6 256 0V69Q255 69 250 68Q233 66 219 66Q187 66 176 79T164 126V470H257V536H164V692H80V536Z" />
<glyph unicode="u" glyph-name="u" horiz-adv-x="463" d="M408 536H324V166Q324 113 291 86T218 58Q191 58 175 68T151 95T141 128T139 166V536H55V156Q55 122 58 96T74 45T116 3T196 -14Q237 -14 273 7T326 63H328V0H408V536Z" />
<glyph unicode="v" glyph-name="v" horiz-adv-x="406" d="M155 0H251L396 536H304L204 106H202L102 536H10L155 0Z" />
<glyph unicode="w" glyph-name="w" horiz-adv-x="648" d="M135 0H233L323 438H325L419 0H511L638 536H550L467 98H465L376 536H277L186 98H184L98 536H10L135 0Z" />
<glyph unicode="x" glyph-name="x" horiz-adv-x="406" d="M153 279L6 0H98L201 212L308 0H400L255 279L395 536H303L205 345L108 536H16L153 279Z" />
<glyph unicode="y" glyph-name="y" horiz-adv-x="406" d="M168 -11L152 -58Q144 -83 129 -96T86 -110Q55 -110 37 -107V-173Q39 -173 46 -174Q72 -176 98 -176Q134 -176 159 -165T199 -135T223 -93T241 -36L396 536H304L210 106H208L102 536H10L168 -11Z" />
<glyph unicode="z" glyph-name="z" horiz-adv-x="389" d="M39 464H270L27 66V0H360V72H122L362 466V536H39V464Z" />
<glyph unicode="{" glyph-name="braceleft" horiz-adv-x="259" d="M2 235Q36 235 57 206T78 124V-54Q78 -123 108 -153T186 -184H257V-118H206Q174 -118 163 -91Q159 -81 158 -68T156 -36V136Q156 170 147 194T122 233T93 255T68 264V266Q78 267 92 274T121 296T146
335T156 394V566Q156 585 157 598T163 621Q174 648 206 648H257V714H186Q138 714 108 684T78 584V406Q78 355 57 325T2 295V235Z" />
<glyph unicode="|" glyph-name="bar" horiz-adv-x="222" d="M78 -14H144V728H78V-14Z" />
<glyph unicode="}" glyph-name="braceright" horiz-adv-x="259" d="M257 295Q223 295 202 325T181 406V584Q181 653 151 683T73 714H2V648H53Q86 648 96 621Q101 611 102 598T103 566V394Q103 360 113 336T137 297T166 275T191 266V264Q181 263 167 256T138 234T113
195T103 136V-36Q103 -55 102 -68T96 -91Q86 -118 53 -118H2V-184H73Q121 -184 151 -154T181 -54V124Q181 176 202 205T257 235V295Z" />
<glyph unicode="~" glyph-name="asciitilde" horiz-adv-x="600" d="M98 185Q118 214 142 236T197 258Q216 258 234 250T281 225Q296 216 304 211Q338 192 358 187T408 182Q451 182 483 208T544 276L502 321Q482 292 458 270T403 248Q384 248 366 256T319 281Q304
291 296 295Q262 314 242 319T192 324Q149 324 118 299T56 231L98 185Z" />
</font>
</defs>
</svg>
